<svg width="286" height="135" viewBox="0 0 286 135" fill="none" xmlns="http://www.w3.org/2000/svg">
<g id="button-frame" clip-path="url(#clip0_1_11)">
<rect width="286" height="135" fill="white"/>
<g id="button-export">
<path id="button" d="M45.6754 112.013C13.0884 106.768 -2.26986 68.7846 17.5135 42.3639V42.3639C24.3062 33.2922 34.3444 27.1991 45.5273 25.3599L136.037 10.474C141.979 9.49691 148.033 9.41962 153.997 10.2448L236.51 21.6603C248.2 23.2776 258.829 29.304 266.22 38.5047V38.5047C288.427 66.15 272.53 107.473 237.521 113.108L154.535 126.465C148.219 127.482 141.781 127.482 135.465 126.465L45.6754 112.013Z" fill="#0D44D0" stroke="#EF0A0A" stroke-width="14"/>
<path id="login" d="M83.3063 43.3636V87H74.2296V43.3636H83.3063ZM105.364 87.6392C102.055 87.6392 99.1923 86.9361 96.7775 85.5298C94.377 84.1094 92.5233 82.1349 91.2164 79.6065C89.9096 77.0639 89.2562 74.1165 89.2562 70.7642C89.2562 67.3835 89.9096 64.429 91.2164 61.9006C92.5233 59.358 94.377 57.3835 96.7775 55.9773C99.1923 54.5568 102.055 53.8466 105.364 53.8466C108.674 53.8466 111.529 54.5568 113.93 55.9773C116.344 57.3835 118.205 59.358 119.512 61.9006C120.819 64.429 121.472 67.3835 121.472 70.7642C121.472 74.1165 120.819 77.0639 119.512 79.6065C118.205 82.1349 116.344 84.1094 113.93 85.5298C111.529 86.9361 108.674 87.6392 105.364 87.6392ZM105.407 80.608C106.912 80.608 108.17 80.1818 109.178 79.3295C110.187 78.4631 110.947 77.2841 111.458 75.7926C111.983 74.3011 112.246 72.6037 112.246 70.7003C112.246 68.7969 111.983 67.0994 111.458 65.608C110.947 64.1165 110.187 62.9375 109.178 62.071C108.17 61.2045 106.912 60.7713 105.407 60.7713C103.887 60.7713 102.608 61.2045 101.572 62.071C100.549 62.9375 99.7747 64.1165 99.2491 65.608C98.7377 67.0994 98.4821 68.7969 98.4821 70.7003C98.4821 72.6037 98.7377 74.3011 99.2491 75.7926C99.7747 77.2841 100.549 78.4631 101.572 79.3295C102.608 80.1818 103.887 80.608 105.407 80.608ZM142.118 99.9545C139.178 99.9545 136.657 99.5497 134.555 98.7401C132.466 97.9446 130.805 96.858 129.569 95.4801C128.333 94.1023 127.53 92.554 127.161 90.8352L135.556 89.706C135.812 90.3594 136.216 90.9702 136.77 91.5384C137.324 92.1065 138.056 92.5611 138.965 92.902C139.888 93.2571 141.01 93.4347 142.331 93.4347C144.306 93.4347 145.932 92.9517 147.211 91.9858C148.503 91.0341 149.15 89.4361 149.15 87.1918V81.2045H148.766C148.368 82.1136 147.772 82.973 146.976 83.7827C146.181 84.5923 145.158 85.2528 143.908 85.7642C142.658 86.2756 141.167 86.5312 139.434 86.5312C136.976 86.5312 134.739 85.9631 132.722 84.8267C130.719 83.6761 129.121 81.9219 127.928 79.5639C126.749 77.1918 126.16 74.1946 126.16 70.5724C126.16 66.8651 126.763 63.7685 127.971 61.2827C129.178 58.7969 130.783 56.9361 132.786 55.7003C134.803 54.4645 137.012 53.8466 139.412 53.8466C141.245 53.8466 142.779 54.1591 144.015 54.7841C145.251 55.3949 146.245 56.1619 146.998 57.0852C147.765 57.9943 148.354 58.8892 148.766 59.7699H149.107V54.2727H158.12V87.3196C158.12 90.1037 157.438 92.4332 156.074 94.3082C154.711 96.1832 152.822 97.5895 150.407 98.527C148.006 99.4787 145.243 99.9545 142.118 99.9545ZM142.31 79.7131C143.773 79.7131 145.009 79.3509 146.018 78.6264C147.04 77.8878 147.822 76.8366 148.361 75.473C148.915 74.0952 149.192 72.4474 149.192 70.5298C149.192 68.6122 148.922 66.9503 148.383 65.544C147.843 64.1236 147.062 63.0227 146.039 62.2415C145.016 61.4602 143.773 61.0696 142.31 61.0696C140.819 61.0696 139.562 61.4744 138.539 62.2841C137.516 63.0795 136.742 64.1875 136.216 65.608C135.691 67.0284 135.428 68.669 135.428 70.5298C135.428 72.419 135.691 74.0526 136.216 75.4304C136.756 76.794 137.53 77.8523 138.539 78.6051C139.562 79.3437 140.819 79.7131 142.31 79.7131ZM165.343 87V54.2727H174.42V87H165.343ZM169.903 50.054C168.553 50.054 167.395 49.6065 166.43 48.7116C165.478 47.8026 165.002 46.7159 165.002 45.4517C165.002 44.2017 165.478 43.1293 166.43 42.2344C167.395 41.3253 168.553 40.8707 169.903 40.8707C171.252 40.8707 172.403 41.3253 173.354 42.2344C174.32 43.1293 174.803 44.2017 174.803 45.4517C174.803 46.7159 174.32 47.8026 173.354 48.7116C172.403 49.6065 171.252 50.054 169.903 50.054ZM190.767 68.0795V87H181.691V54.2727H190.341V60.0469H190.725C191.449 58.1435 192.664 56.6378 194.368 55.5298C196.073 54.4077 198.139 53.8466 200.568 53.8466C202.841 53.8466 204.823 54.3438 206.513 55.3381C208.203 56.3324 209.517 57.7528 210.455 59.5994C211.392 61.4318 211.861 63.6193 211.861 66.1619V87H202.784V67.7812C202.798 65.7784 202.287 64.2159 201.25 63.0938C200.213 61.9574 198.786 61.3892 196.968 61.3892C195.746 61.3892 194.666 61.652 193.729 62.1776C192.806 62.7031 192.081 63.4702 191.556 64.4787C191.044 65.473 190.781 66.6733 190.767 68.0795Z" fill="white"/>
</g>
</g>
<defs>
<clipPath id="clip0_1_11">
<rect width="286" height="135" fill="white"/>
</clipPath>
</defs>
</svg>
